<svg xmlns="http://www.w3.org/2000/svg" xmlns:xlink="http://www.w3.org/1999/xlink" id="processonSvg1000" viewBox="296.078125 50.833330154418945 303.8003387451172 430.6770849227905" width="303.8003387451172" height="430.6770849227905"><defs id="ProcessOnDefs1001"/><g id="ProcessOnG1002"><path id="ProcessOnPath1003" d="M296.078125 50.833330154418945H599.8784637451172V481.5104150772095H296.078125V50.833330154418945Z" fill="none"/><g id="ProcessOnG1004"><g id="ProcessOnG1005" transform="matrix(1.0,0.0,0.0,1.0,316.078125,70.83333015441895)" opacity="1.0"><path id="ProcessOnPath1006" d="M0.0 29.833334922790527C0.0 -9.94444497426351 60.25 -9.94444497426351 60.25 29.833334922790527C60.25 69.61111481984456 0.0 69.61111481984456 0.0 29.833334922790527Z" stroke="#323232" stroke-width="2.0" stroke-dasharray="none" opacity="1.0" fill="#99ffcc"/><g id="ProcessOnG1007" transform="matrix(1.0,0.0,0.0,1.0,10.0,21.708334922790527)"><text id="ProcessOnText1008" fill="#000000" font-size="13" x="19.125" y="13.325" font-family="微软雅黑" font-weight="normal" font-style="normal" text-decoration="none" family="微软雅黑" text-anchor="middle" size="13">22</text></g></g><g id="ProcessOnG1009" transform="matrix(1.0,0.0,0.0,1.0,369.515625,149.375)" opacity="1.0"><path id="ProcessOnPath1010" d="M0.0 30.416665077209473C0.0 -10.138888359069824 60.25 -10.138888359069824 60.25 30.416665077209473C60.25 70.97221851348877 0.0 70.97221851348877 0.0 30.416665077209473Z" stroke="#323232" stroke-width="2.0" stroke-dasharray="none" opacity="1.0" fill="#99ffcc"/><g id="ProcessOnG1011" transform="matrix(1.0,0.0,0.0,1.0,10.0,22.291665077209473)"><text id="ProcessOnText1012" fill="#000000" font-size="13" x="19.125" y="13.325" font-family="微软雅黑" font-weight="normal" font-style="normal" text-decoration="none" family="微软雅黑" text-anchor="middle" size="13">33</text></g></g><g id="ProcessOnG1013"><path id="ProcessOnPath1014" d="M346.203125 130.5L375.62304719060086 161.4268493615043" stroke="#323232" stroke-width="2.0" stroke-dasharray="none" fill="none"/></g><g id="ProcessOnG1015" transform="matrix(1.0,0.0,0.0,1.0,420.0,233.33333015441895)" opacity="1.0"><path id="ProcessOnPath1016" d="M0.0 30.0C0.0 -10.0 60.0 -10.0 60.0 30.0C60.0 70.0 0.0 70.0 0.0 30.0Z" stroke="#323232" stroke-width="2.0" stroke-dasharray="none" opacity="1.0" fill="#99ffcc"/><g id="ProcessOnG1017" transform="matrix(1.0,0.0,0.0,1.0,10.0,21.875)"><text id="ProcessOnText1018" fill="#000000" font-size="13" x="19.0" y="13.325" font-family="微软雅黑" font-weight="normal" font-style="normal" text-decoration="none" family="微软雅黑" text-anchor="middle" size="13">44</text></g></g><g id="ProcessOnG1019"><path id="ProcessOnPath1020" d="M399.640625 210.20833015441895L428.53553390593277 241.8688640603517" stroke="#323232" stroke-width="2.0" stroke-dasharray="none" fill="none"/></g><g id="ProcessOnG1021" transform="matrix(1.0,0.0,0.0,1.0,470.0,318.33333015441895)" opacity="1.0"><path id="ProcessOnPath1022" d="M0.0 30.0C0.0 -10.0 60.0 -10.0 60.0 30.0C60.0 70.0 0.0 70.0 0.0 30.0Z" stroke="#323232" stroke-width="2.0" stroke-dasharray="none" opacity="1.0" fill="#99ffcc"/><g id="ProcessOnG1023" transform="matrix(1.0,0.0,0.0,1.0,10.0,21.875)"><text id="ProcessOnText1024" fill="#000000" font-size="13" x="19.0" y="13.325" font-family="微软雅黑" font-weight="normal" font-style="normal" text-decoration="none" family="微软雅黑" text-anchor="middle" size="13">55</text></g></g><g id="ProcessOnG1025"><path id="ProcessOnPath1026" d="M450.0 293.33333015441895L481.43394109087757 325.38121026514136" stroke="#323232" stroke-width="2.0" stroke-dasharray="none" fill="none"/></g><g id="ProcessOnG1027" transform="matrix(1.0,0.0,0.0,1.0,519.8784637451172,401.5104150772095)" opacity="1.0"><path id="ProcessOnPath1028" d="M0.0 30.0C0.0 -10.0 60.0 -10.0 60.0 30.0C60.0 70.0 0.0 70.0 0.0 30.0Z" stroke="#323232" stroke-width="2.0" stroke-dasharray="none" opacity="1.0" fill="#99ffcc"/><g id="ProcessOnG1029" transform="matrix(1.0,0.0,0.0,1.0,10.0,21.875)"><text id="ProcessOnText1030" fill="#000000" font-size="13" x="19.0" y="13.325" font-family="微软雅黑" font-weight="normal" font-style="normal" text-decoration="none" family="微软雅黑" text-anchor="middle" size="13">66</text></g></g><g id="ProcessOnG1031"><path id="ProcessOnPath1032" d="M500.0 378.33333015441895L528.2623472216003 411.14429855369264" stroke="#323232" stroke-width="2.0" stroke-dasharray="none" fill="none"/></g></g></g></svg>